# Blender v3.0.0 OBJ File: ''
# www.blender.org
mtllib tnt.mtl
o Cube_Cube.001
v -1.000000 -1.000000 1.000000
v -1.000000 1.000000 1.000000
v -1.000000 -1.000000 -1.000000
v -1.000000 1.000000 -1.000000
v 1.000000 -1.000000 1.000000
v 1.000000 1.000000 1.000000
v 1.000000 -1.000000 -1.000000
v 1.000000 1.000000 -1.000000
vt 0.500000 1.000000
vt 0.503125 0.500000
vt 0.000000 0.500000
vt 0.503125 1.000000
vt 0.503125 0.500000
vt -0.000000 0.500000
vt 0.503125 1.000000
vt 0.503125 0.500000
vt -0.000000 0.500000
vt 0.503125 1.000000
vt 0.503125 0.500000
vt 0.000000 0.500000
vt 1.000000 0.500000
vt 0.503125 1.000000
vt 0.503125 0.000000
vt 0.503125 0.500000
vt 1.000000 0.500000
vt 0.503125 1.000000
vt 0.000100 0.999900
vt 0.000000 1.000000
vt 0.000000 1.000000
vt 0.000000 1.000000
vt 1.000000 1.000000
vt 1.000000 0.000000
vn 1.0000 0.0000 0.0000
vn 0.0000 0.0000 1.0000
vn -1.0000 0.0000 0.0000
vn 0.0000 0.0000 -1.0000
vn 0.0000 1.0000 0.0000
vn 0.0000 -1.0000 0.0000
usemtl None
s off
f 2/1/1 1/2/1 3/3/1
f 4/4/2 3/5/2 7/6/2
f 8/7/3 7/8/3 5/9/3
f 6/10/4 5/11/4 1/12/4
f 7/13/5 3/5/5 1/14/5
f 4/15/6 8/16/6 6/17/6
f 2/18/1 3/3/1 4/19/1
f 4/4/2 7/6/2 8/20/2
f 8/7/3 5/9/3 6/21/3
f 6/10/4 1/12/4 2/22/4
f 7/13/5 1/14/5 5/23/5
f 4/15/6 6/17/6 2/24/6
